<svg width="78" height="78" viewBox="0 0 78 78" fill="none" xmlns="http://www.w3.org/2000/svg">
<circle cx="39" cy="39" r="39" fill="#F40F0F"/>
<path d="M14.2217 26.6357L20.945 32.0671L19.9336 38.4979L14.1066 34.8994L14.2218 26.636L14.2217 26.6357ZM3.43375 31.2613L21.8343 42.6262L24.4408 26.055L38.8483 40.6281L45.6161 20.5429L53.9178 34.1419L65.5743 14.7296L64.8737 32.6096C64.6081 32.6325 64.3413 32.6774 64.0753 32.7487C61.6228 33.4058 60.1444 35.9444 60.7964 38.3778C61.2756 40.166 62.7796 41.4267 64.5167 41.7097L64.4216 44.1381C63.6845 47.8666 56.6177 52.4896 43.0364 56.4136C28.6657 60.5656 19.2063 60.3668 16.6481 56.9388L16.6484 56.9387L15.3781 54.47C17.4998 53.6084 18.7161 51.2723 18.1138 49.0247C17.4618 46.5913 14.9119 45.132 12.4592 45.7892C12.0012 45.912 11.577 46.1005 11.1945 46.3416L3.43368 31.261L3.43375 31.2613ZM54.5808 17.8394L56.3746 25.1701L53.905 29.2829L51.516 25.3693L54.5805 17.8393L54.5808 17.8394ZM35.0494 23.4763L40.0216 29.2652L37.7679 35.9539L32.9908 31.1221L35.0495 23.4761L35.0494 23.4763ZM13.1071 48.2074C14.2429 47.903 15.3755 48.551 15.6775 49.6778C15.9794 50.8045 15.3226 51.9323 14.1868 52.2366C13.0509 52.5409 11.9187 51.8927 11.6168 50.766C11.3148 49.6392 11.9713 48.5118 13.1072 48.2075L13.1071 48.2074ZM64.7235 35.1664C65.859 34.8622 66.9917 35.5104 67.2936 36.6372C67.5955 37.7639 66.9388 38.8915 65.803 39.1958C64.6671 39.5002 63.5348 38.8521 63.2329 37.7252C62.931 36.5985 63.5874 35.4708 64.7232 35.1665L64.7235 35.1664ZM48.3504 42.0275C45.8978 42.6846 44.4194 45.223 45.0714 47.6566C45.7235 50.09 48.273 51.549 50.7256 50.8919C53.1783 50.2347 54.6569 47.6963 54.0049 45.2629C53.3529 42.8295 50.803 41.3703 48.3506 42.0274L48.3504 42.0275ZM31.241 46.6119C28.7884 47.2691 27.31 49.8074 27.962 52.2411C28.6141 54.6744 31.1636 56.1335 33.6162 55.4763C36.0689 54.8191 37.5475 52.2807 36.8955 49.8474C36.2435 47.414 33.6936 45.9547 31.241 46.6119ZM48.9984 44.4453C50.1343 44.1409 51.2665 44.7887 51.5685 45.9157C51.8704 47.0425 51.214 48.1701 50.0781 48.4745C48.9426 48.7787 47.81 48.1305 47.5081 47.0037C47.2062 45.8769 47.8627 44.7494 48.9986 44.4451L48.9984 44.4453ZM31.889 49.0297C33.0248 48.7254 34.1571 49.3732 34.4591 50.5002C34.761 51.627 34.1043 52.7546 32.9685 53.059C31.8327 53.3633 30.7001 52.7151 30.3982 51.5883C30.0963 50.4615 30.753 49.334 31.8888 49.0296L31.889 49.0297Z" fill="white"/>
</svg>
